<?xml version="1.0" encoding="UTF-8"?>
<svg width="858px" height="400px" viewBox="0 0 858 400" version="1.1" xmlns="http://www.w3.org/2000/svg" xmlns:xlink="http://www.w3.org/1999/xlink">
    <title>banner_sunset</title>
    <g id="banner_sunset" stroke="none" stroke-width="1" fill="none" fill-rule="evenodd">
        <rect fill="#E4C2B9" x="0" y="0" width="858" height="400"></rect>
        <g id="logo_white" transform="translate(129.000000, 152.000000)" fill="#FFFFFF" fill-rule="nonzero">
            <path d="M588.093039,96 C584.743643,96 581.891455,94.8395042 579.534473,92.5194976 C577.178491,90.0763484 576,87.2066333 576,83.9083819 C576,80.7332731 577.178491,77.9847303 579.534473,75.6647237 C581.891455,73.2215746 584.743643,72 588.093039,72 C591.441434,72 594.232596,73.1604958 596.464527,75.4814876 C598.821508,77.8014941 600,80.6111157 600,83.9083819 C600,87.2066333 598.821508,90.0763484 596.464527,92.5194976 C594.232596,94.8395042 591.441434,96 588.093039,96 Z" id="Path"></path>
            <path d="M521,96 C511.928619,96 503.739946,93.9380027 496.432975,89.8130027 C489.126005,85.5623324 483.393432,79.8126676 479.23626,72.5630027 C475.078083,65.1876676 473,57 473,48 C473,39 475.078083,30.8746649 479.23626,23.6249999 C483.393432,16.2496649 489.126005,10.5 496.432975,6.375 C503.739946,2.12533512 511.928619,0 521,0 C530.070375,0 538.260054,2.12533512 545.567023,6.375 C552.873995,10.5 558.606568,16.2496649 562.76374,23.6249999 C566.920912,30.8746649 569,39 569,48 C569,57 566.920912,65.1876676 562.76374,72.5630027 C558.606568,79.8126676 552.873995,85.5623324 545.567023,89.8130027 C538.260054,93.9380027 530.070375,96 521,96 Z M521,79.6880027 C529.944705,79.6880027 537.251676,76.7503351 542.920912,70.8750001 C548.590147,64.8750001 551.425268,57.2503351 551.425268,48 C551.425268,38.7496649 548.590147,31.1873324 542.920912,25.3130027 C537.251676,19.3130027 529.944705,16.3130027 521,16.3130027 C512.05429,16.3130027 504.747319,19.3130027 499.078083,25.3130027 C493.408847,31.1873324 490.574732,38.7496649 490.574732,48 C490.574732,57.2503351 493.408847,64.8750001 499.078083,70.8750001 C504.747319,76.7503351 512.05429,79.6880027 521,79.6880027 Z" id="Shape"></path>
            <polygon id="Path" points="439 2 456 2 456 96 439 96"></polygon>
            <path d="M297,1.13833183 L313.967966,1.13833183 L313.967966,12.5216503 C316.454789,8.72755141 319.872536,5.69165921 324.224225,3.41499552 C328.574908,1.13833183 333.360358,0 338.58158,0 C349.521188,0 357.72539,4.61668156 363.195194,13.8500447 C370.156488,4.61668156 379.417415,0 390.978979,0 C400.302302,0 407.635967,2.84582961 412.981983,8.53748883 C418.326992,14.1024396 421,22.2608251 421,33.0116235 L421,96 L404.031029,96 L404.031029,36.8067442 C404.031029,30.3558563 402.477141,25.3600716 399.369367,21.8183676 C396.261592,18.1499553 391.848512,16.3167711 386.130127,16.3167711 C380.660323,16.3167711 376.185852,18.2133095 372.704702,22.0084302 C369.224558,25.6758207 367.48348,30.6092732 367.48348,36.8067442 L367.48348,96 L350.515514,96 L350.515514,36.8067442 C350.515514,30.3558563 348.89923,25.3600716 345.667668,21.8183676 C342.559893,18.1499553 338.20921,16.3167711 332.614612,16.3167711 C327.144809,16.3167711 322.670338,18.2133095 319.189187,22.0084302 C315.709044,25.6758207 313.967966,30.6092732 313.967966,36.8067442 L313.967966,96 L297,96 L297,1.13833183 Z" id="Path"></path>
            <path d="M238,96 C228.928619,96 220.739946,93.9380027 213.432977,89.8130027 C206.126005,85.5623324 200.393432,79.8126676 196.23626,72.5630027 C192.078083,65.1876676 190,57 190,48 C190,39 192.078083,30.8746649 196.23626,23.6249999 C200.393432,16.2496649 206.126005,10.5 213.432977,6.375 C220.739946,2.12533512 228.928619,0 238,0 C247.070375,0 255.260054,2.12533512 262.567025,6.375 C269.873995,10.5 275.606568,16.2496649 279.76374,23.6249999 C283.920912,30.8746649 286,39 286,48 C286,57 283.920912,65.1876676 279.76374,72.5630027 C275.606568,79.8126676 269.873995,85.5623324 262.567025,89.8130027 C255.260054,93.9380027 247.070375,96 238,96 Z M238,79.6880027 C246.944705,79.6880027 254.251676,76.7503351 259.920912,70.8750001 C265.590147,64.8750001 268.425268,57.2503351 268.425268,48 C268.425268,38.7496649 265.590147,31.1873324 259.920912,25.3130027 C254.251676,19.3130027 246.944705,16.3130027 238,16.3130027 C229.05429,16.3130027 221.747319,19.3130027 216.078083,25.3130027 C210.408847,31.1873324 207.574732,38.7496649 207.574732,48 C207.574732,57.2503351 210.408847,64.8750001 216.078083,70.8750001 C221.747319,76.7503351 229.05429,79.6880027 238,79.6880027 Z" id="Shape"></path>
            <path d="M133,96 C123.928619,96 115.739946,93.9380027 108.432977,89.8130027 C101.126005,85.5623324 95.3934316,79.8126676 91.2362601,72.5630027 C87.0780831,65.1876676 85,57 85,48 C85,39 87.0780831,30.8746649 91.2362601,23.6249999 C95.3934316,16.2496649 101.126005,10.5 108.432977,6.375 C115.739946,2.12533512 123.928619,0 133,0 C142.070375,0 150.260054,2.12533512 157.567025,6.375 C164.873995,10.5 170.606568,16.2496649 174.76374,23.6249999 C178.920912,30.8746649 181,39 181,48 C181,57 178.920912,65.1876676 174.76374,72.5630027 C170.606568,79.8126676 164.873995,85.5623324 157.567025,89.8130027 C150.260054,93.9380027 142.070375,96 133,96 Z M132.574732,79.6880027 C141.394413,79.6880027 148.59925,76.7503351 154.189245,70.8750001 C159.779239,64.8750001 162.574732,57.2503351 162.574732,48 C162.574732,38.7496649 159.779239,31.1873324 154.189245,25.3130027 C148.59925,19.3130027 141.394413,16.3130027 132.574732,16.3130027 C123.75406,16.3130027 116.549222,19.3130027 110.959228,25.3130027 C105.369233,31.1873324 102.574732,38.7496649 102.574732,48 C102.574732,57.2503351 105.369233,64.8750001 110.959228,70.8750001 C116.549222,76.7503351 123.75406,79.6880027 132.574732,79.6880027 Z" id="Shape"></path>
            <polygon id="Path" points="0 0 17.0293155 0 17.0293155 79.7603887 78 79.7603887 78 96 0 96"></polygon>
        </g>
    </g>
</svg>