<?xml version="1.0" encoding="UTF-8"?>
<svg width="512px" height="512px" viewBox="0 0 512 512" version="1.1" xmlns="http://www.w3.org/2000/svg" xmlns:xlink="http://www.w3.org/1999/xlink">
    <title>icon_gold</title>
    <g id="icon_gold" stroke="none" stroke-width="1" fill="none" fill-rule="evenodd">
        <circle id="Oval" fill="#DCA034" cx="256" cy="256" r="256"></circle>
        <g id="logo_white" transform="translate(64.000000, 225.000000)" fill="#FFFFFF" fill-rule="nonzero">
            <path d="M376.379545,61.44 C374.235932,61.44 372.410531,60.6972827 370.902063,59.2124785 C369.394234,57.648863 368.64,55.8122453 368.64,53.7013644 C368.64,51.6692948 369.394234,49.9102274 370.902063,48.4254232 C372.410531,46.8618077 374.235932,46.08 376.379545,46.08 C378.522518,46.08 380.308861,46.8227173 381.737297,48.3081521 C383.245765,49.7929562 384,51.591114 384,53.7013644 C384,55.8122453 383.245765,57.648863 381.737297,59.2124785 C380.308861,60.6972827 378.522518,61.44 376.379545,61.44 Z" id="Path"></path>
            <path d="M333.44,61.44 C327.634316,61.44 322.393565,60.1203217 317.717104,57.4803217 C313.040643,54.7598927 309.371796,51.0801073 306.711206,46.4403217 C304.049973,41.7201073 302.72,36.48 302.72,30.72 C302.72,24.96 304.049973,19.7597855 306.711206,15.1199999 C309.371796,10.3997855 313.040643,6.72 317.717104,4.08 C322.393565,1.36021448 327.634316,0 333.44,0 C339.24504,0 344.486435,1.36021448 349.162895,4.08 C353.839357,6.72 357.508204,10.3997855 360.168794,15.1199999 C362.829384,19.7597855 364.16,24.96 364.16,30.72 C364.16,36.48 362.829384,41.7201073 360.168794,46.4403217 C357.508204,51.0801073 353.839357,54.7598927 349.162895,57.4803217 C344.486435,60.1203217 339.24504,61.44 333.44,61.44 Z M333.44,51.0003217 C339.164611,51.0003217 343.841073,49.1202145 347.469384,45.3600001 C351.097694,41.5200001 352.912172,36.6402145 352.912172,30.72 C352.912172,24.7997855 351.097694,19.9598927 347.469384,16.2003217 C343.841073,12.3603217 339.164611,10.4403217 333.44,10.4403217 C327.714746,10.4403217 323.038284,12.3603217 319.409973,16.2003217 C315.781662,19.9598927 313.967828,24.7997855 313.967828,30.72 C313.967828,36.6402145 315.781662,41.5200001 319.409973,45.3600001 C323.038284,49.1202145 327.714746,51.0003217 333.44,51.0003217 Z" id="Shape"></path>
            <polygon id="Path" points="280.96 1.28 291.84 1.28 291.84 61.44 280.96 61.44"></polygon>
            <path d="M190.08,0.728532371 L200.939498,0.728532371 L200.939498,8.01385619 C202.531065,5.5856329 204.718423,3.64266189 207.503504,2.18559713 C210.287941,0.728532371 213.350629,0 216.692211,0 C223.69356,0 228.94425,2.9546762 232.444924,8.86402861 C236.900152,2.9546762 242.827146,0 250.226547,0 C256.193473,0 260.887019,1.82133095 264.308469,5.46399285 C267.729275,9.02556134 269.44,14.2469281 269.44,21.127439 L269.44,61.44 L258.579859,61.44 L258.579859,23.5563163 C258.579859,19.427748 257.58537,16.2304458 255.596395,13.9637553 C253.607419,11.6159714 250.783048,10.4427335 247.123281,10.4427335 C243.622607,10.4427335 240.758945,11.6565181 238.531009,14.0853953 C236.303717,16.4325252 235.189427,19.5899348 235.189427,23.5563163 L235.189427,61.44 L224.329929,61.44 L224.329929,23.5563163 C224.329929,19.427748 223.295507,16.2304458 221.227308,13.9637553 C219.238332,11.6159714 216.453894,10.4427335 212.873352,10.4427335 C209.372678,10.4427335 206.509016,11.6565181 204.28108,14.0853953 C202.053788,16.4325252 200.939498,19.5899348 200.939498,23.5563163 L200.939498,61.44 L190.08,61.44 L190.08,0.728532371 Z" id="Path"></path>
            <path d="M152.32,61.44 C146.514316,61.44 141.273565,60.1203217 136.597105,57.4803217 C131.920643,54.7598927 128.251796,51.0801073 125.591206,46.4403217 C122.929973,41.7201073 121.6,36.48 121.6,30.72 C121.6,24.96 122.929973,19.7597855 125.591206,15.1199999 C128.251796,10.3997855 131.920643,6.72 136.597105,4.08 C141.273565,1.36021448 146.514316,0 152.32,0 C158.12504,0 163.366435,1.36021448 168.042896,4.08 C172.719357,6.72 176.388204,10.3997855 179.048794,15.1199999 C181.709384,19.7597855 183.04,24.96 183.04,30.72 C183.04,36.48 181.709384,41.7201073 179.048794,46.4403217 C176.388204,51.0801073 172.719357,54.7598927 168.042896,57.4803217 C163.366435,60.1203217 158.12504,61.44 152.32,61.44 Z M152.32,51.0003217 C158.044611,51.0003217 162.721073,49.1202145 166.349384,45.3600001 C169.977694,41.5200001 171.792172,36.6402145 171.792172,30.72 C171.792172,24.7997855 169.977694,19.9598927 166.349384,16.2003217 C162.721073,12.3603217 158.044611,10.4403217 152.32,10.4403217 C146.594746,10.4403217 141.918284,12.3603217 138.289973,16.2003217 C134.661662,19.9598927 132.847828,24.7997855 132.847828,30.72 C132.847828,36.6402145 134.661662,41.5200001 138.289973,45.3600001 C141.918284,49.1202145 146.594746,51.0003217 152.32,51.0003217 Z" id="Shape"></path>
            <path d="M85.12,61.44 C79.3143162,61.44 74.0735654,60.1203217 69.3971053,57.4803217 C64.7206432,54.7598927 61.0517962,51.0801073 58.3912065,46.4403217 C55.7299732,41.7201073 54.4,36.48 54.4,30.72 C54.4,24.96 55.7299732,19.7597855 58.3912065,15.1199999 C61.0517962,10.3997855 64.7206432,6.72 69.3971053,4.08 C74.0735654,1.36021448 79.3143162,0 85.12,0 C90.92504,0 96.1664346,1.36021448 100.842896,4.08 C105.519357,6.72 109.188204,10.3997855 111.848794,15.1199999 C114.509384,19.7597855 115.84,24.96 115.84,30.72 C115.84,36.48 114.509384,41.7201073 111.848794,46.4403217 C109.188204,51.0801073 105.519357,54.7598927 100.842896,57.4803217 C96.1664346,60.1203217 90.92504,61.44 85.12,61.44 Z M84.8478285,51.0003217 C90.4924243,51.0003217 95.10352,49.1202145 98.6811168,45.3600001 C102.258713,41.5200001 104.047828,36.6402145 104.047828,30.72 C104.047828,24.7997855 102.258713,19.9598927 98.6811168,16.2003217 C95.10352,12.3603217 90.4924243,10.4403217 84.8478285,10.4403217 C79.2025984,10.4403217 74.5915021,12.3603217 71.0139059,16.2003217 C67.4363091,19.9598927 65.6478285,24.7997855 65.6478285,30.72 C65.6478285,36.6402145 67.4363091,41.5200001 71.0139059,45.3600001 C74.5915021,49.1202145 79.2025984,51.0003217 84.8478285,51.0003217 Z" id="Shape"></path>
            <polygon id="Path" points="0 0 10.8987619 0 10.8987619 51.0466488 49.92 51.0466488 49.92 61.44 0 61.44"></polygon>
        </g>
    </g>
</svg>