<svg xmlns="http://www.w3.org/2000/svg" width="1024" height="1024" viewBox="0 0 1024 1024"><rect width="1024" height="1024" fill="#F5C401"/><g fill="#FFFFFF" transform="translate(129.26232741617358 447.3688362919132) scale(1.346482577251808)">
    <path d="M0 0h16.5v79.5H78V96H0z"/>
    <path d="m133.5 96c-9.0714 0-17.2601-2.062-24.567-6.187-7.307-4.2507-13.0395-10.0003-17.1967-17.25-4.1582-7.3753-6.2363-15.563-6.2363-24.563s2.0781-17.1253 6.2363-24.375c4.1572-7.3753 9.8897-13.125 17.1967-17.25 7.307-4.2497 15.4956-6.375 24.567-6.375 9.0704 0 17.2601 2.1253 24.567 6.375 7.307 4.125 13.0395 9.8747 17.1967 17.25 4.1572 7.2497 6.2363 15.375 6.2363 24.375s-2.0791 17.1877-6.2363 24.563c-4.1572 7.2497-9.8897 12.9993-17.1967 17.25-7.307 4.125-15.4967 6.187-24.567 6.187zm-.4253-16.312c8.8197 0 16.0245-2.9377 21.6145-8.813 5.59-6 8.3855-13.6247 8.3855-22.875s-2.7955-16.8127-8.3855-22.687c-5.59-6-12.7948-9-21.6145-9-8.8207 0-16.0255 3-21.6155 9-5.59 5.8743-8.3845 13.4367-8.3845 22.687s2.7945 16.875 8.3845 22.875c5.59 5.8753 12.7948 8.813 21.6155 8.813z"/>
    <path d="m520.5 96c-9.0714 0-17.2601-2.062-24.567-6.187-7.307-4.2507-13.0395-10.0003-17.1967-17.25-4.1582-7.3753-6.2363-15.563-6.2363-24.563s2.0781-17.1253 6.2363-24.375c4.1572-7.3753 9.8897-13.125 17.1967-17.25 7.307-4.2497 15.4956-6.375 24.567-6.375 9.0704 0 17.2601 2.1253 24.567 6.375 7.307 4.125 13.0395 9.8747 17.1967 17.25 4.1572 7.2497 6.2363 15.375 6.2363 24.375s-2.0791 17.1877-6.2363 24.563c-4.1572 7.2497-9.8897 12.9993-17.1967 17.25-7.307 4.125-15.4966 6.187-24.567 6.187zm0-16.312c8.9447 0 16.2517-2.9377 21.9209-8.813 5.6692-6 8.5044-13.6247 8.5044-22.875s-2.8351-16.8127-8.5044-22.687c-5.6692-6-12.9762-9-21.9209-9-8.9457 0-16.2527 3-21.9219 9-5.6692 5.8743-8.5034 13.4367-8.5034 22.687s2.8341 16.875 8.5034 22.875c5.6692 5.8753 12.9762 8.813 21.9219 8.813z" transform="translate(-282)"/>
    <path d="M305.25 96V35.25a27 27 0 0 1 54 0V96M359.25 35.25a27 27 0 0 1 54 0V96" fill="none" stroke="#FFFFFF" stroke-width="16.5"/>
    <path d="M439.5 0H456v96h-16.5z"/>
    <path d="m520.5 96c-9.0714 0-17.2601-2.062-24.567-6.187-7.307-4.2507-13.0395-10.0003-17.1967-17.25-4.1582-7.3753-6.2363-15.563-6.2363-24.563s2.0781-17.1253 6.2363-24.375c4.1572-7.3753 9.8897-13.125 17.1967-17.25 7.307-4.2497 15.4956-6.375 24.567-6.375 9.0704 0 17.2601 2.1253 24.567 6.375 7.307 4.125 13.0395 9.8747 17.1967 17.25 4.1572 7.2497 6.2363 15.375 6.2363 24.375s-2.0791 17.1877-6.2363 24.563c-4.1572 7.2497-9.8897 12.9993-17.1967 17.25-7.307 4.125-15.4966 6.187-24.567 6.187zm0-16.312c8.9447 0 16.2517-2.9377 21.9209-8.813 5.6692-6 8.5044-13.6247 8.5044-22.875s-2.8351-16.8127-8.5044-22.687c-5.6692-6-12.9762-9-21.9209-9-8.9457 0-16.2527 3-21.9219 9-5.6692 5.8743-8.5034 13.4367-8.5034 22.687s2.8341 16.875 8.5034 22.875c5.6692 5.8753 12.9762 8.813 21.9219 8.813z"/>
    <circle cx="588" cy="84" r="12"/>
  </g></svg>
