<?xml version="1.0" encoding="UTF-8"?>
<!DOCTYPE svg PUBLIC "-//W3C//DTD SVG 1.1//EN" "http://www.w3.org/Graphics/SVG/1.1/DTD/svg11.dtd">
<!-- Creator: CorelDRAW X6 -->
<svg xmlns="http://www.w3.org/2000/svg" xml:space="preserve" width="8.84722in" height="2.29166in" version="1.1" style="shape-rendering:geometricPrecision; text-rendering:geometricPrecision; image-rendering:optimizeQuality; fill-rule:evenodd; clip-rule:evenodd"
viewBox="0 0 8847 2292"
 xmlns:xlink="http://www.w3.org/1999/xlink">
 <defs>
  <style type="text/css">
   <![CDATA[
    .fil0 {fill:#F3AE2D;fill-rule:nonzero}
   ]]>
  </style>
 </defs>
 <g id="Layer_x0020_1">
  <metadata id="CorelCorpID_0Corel-Layer"/>
  <path class="fil0" d="M48 2272c-56,-28 -65,-114 -16,-145 13,-8 83,-29 156,-45 317,-71 602,-212 780,-385l57 -55 -54 -89c-60,-100 -113,-228 -144,-351 -101,-394 -20,-955 161,-1122 149,-137 331,-56 423,189 60,160 77,283 78,542 1,295 -20,407 -112,612l-30 67 -38 -37c-21,-20 -48,-53 -60,-73l-22 -36 24 -64c46,-122 67,-239 74,-398 13,-299 -48,-581 -145,-671 -25,-23 -33,-25 -56,-14 -81,37 -153,267 -169,537 -31,540 223,968 715,1206 123,59 290,116 442,148 126,27 152,45 153,106 1,50 -32,83 -85,83 -56,0 -220,-40 -361,-87 -232,-78 -448,-200 -597,-338l-77 -71 -95 81c-197,168 -413,281 -689,360 -174,50 -282,68 -313,52zm3958 -425c-244,-41 -407,-225 -429,-484 -35,-414 318,-689 724,-563 210,65 339,258 339,504 0,170 -49,301 -148,401 -114,114 -310,171 -485,142zm272 -157c128,-57 195,-172 203,-346 8,-174 -39,-298 -140,-372 -164,-119 -422,-87 -534,67 -109,150 -101,429 18,567 32,38 94,79 148,98 73,26 232,19 306,-14zm911 153c-143,-29 -284,-134 -343,-257 -82,-167 -80,-394 5,-553 99,-186 323,-291 548,-257 167,25 278,90 359,211 59,87 81,158 89,282 17,270 -106,473 -337,554 -77,27 -239,37 -321,20zm308 -158c124,-61 187,-170 195,-342 10,-199 -55,-332 -192,-400 -177,-87 -399,-38 -491,109 -52,82 -64,130 -63,259 1,212 74,334 238,393 80,29 234,20 314,-19zm2671 153c-189,-46 -332,-192 -372,-380 -39,-184 2,-382 107,-511 178,-220 573,-237 787,-34 172,163 209,482 80,701 -108,185 -366,281 -601,224zm277 -132c166,-51 265,-230 244,-443 -15,-156 -92,-278 -208,-330 -81,-36 -256,-38 -331,-3 -152,70 -217,198 -209,409 4,94 10,124 35,179 47,101 110,158 211,190 64,20 192,19 258,-1zm-2431 127c-12,-7 -20,-26 -20,-47 0,-20 20,-241 46,-491 31,-304 51,-464 62,-481 22,-35 97,-35 128,0 12,14 96,179 186,366 90,188 167,345 172,349 4,4 86,-151 181,-345 96,-194 183,-363 195,-374 30,-30 105,-29 121,2 11,21 100,879 100,969 0,35 -5,44 -28,53 -41,16 -66,13 -92,-9 -21,-18 -26,-47 -52,-364 -16,-189 -32,-353 -36,-364 -5,-14 -54,77 -161,300 -85,176 -161,331 -170,345 -20,31 -81,34 -106,6 -9,-11 -86,-165 -171,-344 -85,-179 -156,-322 -159,-319 -3,3 -21,168 -40,367 -19,199 -40,366 -46,372 -17,17 -85,23 -106,10zm1433 4c-11,-3 -25,-18 -31,-33 -6,-16 -10,-230 -10,-497 0,-529 -2,-518 77,-518 82,0 79,-19 79,524 0,369 -3,488 -14,502 -15,20 -68,32 -101,23zm-4555 -16c-18,-11 -19,-47 -19,-509 0,-372 3,-501 13,-511 7,-7 32,-13 55,-13 79,0 76,-16 76,473l0 438 234 0c140,0 243,5 256,12 15,8 22,23 22,49 0,72 -2,73 -326,72 -177,0 -299,-5 -310,-12z"/>
 </g>
</svg>
