<svg xmlns="http://www.w3.org/2000/svg" viewBox="0 0 128 128">
  <circle cx="64" cy="64" r="61" fill="#F5C401" stroke="#A87900" stroke-width="2"/>
  <g transform="scale(2.3021582734)">
    <path fill="#fff" stroke="#A87900" stroke-width=".9" stroke-linecap="round" stroke-linejoin="round" d="M19.2 14.2c.2-.6.8-1 1.8-1.2.9-.1 2.1 0 2.8.4v-.2c.2-.6.8-1.1 1.8-1.2 1-.1 2.3 0 3 .6.3-.3.8-.5 1.4-.6 1.3-.2 2.8.1 3.3 1 .4.9.4 3.9.4 4.5 0 1.2-.1 2.4-.2 3.2.4 1.2.8 1.5 1 1.6.3.3 1.4-.3 2.3-.9 1.7-.9 3.8-2.1 6.1-1.8 2.4.2 3.6 1.1 3.6 2.7 0 .4-.1.7-.1.9v.3c-.1.7-.9.9-2.2 1-1.4.3-3.4.8-4.5 2-.7.8-1.7 1.8-2.7 2.8-2 1.9-5 4.8-5.2 5.5-.1.3-.2 1.1-.2 3.5V41c0 .1 0 .3-.1.4-.1.1-.2.2-.4.2H18.9c-.3 0-.5-.2-.5-.5v-6.9c0-.1-.2-.3-.4-.6-.7-1-2-2.8-2.6-6.1-.3-1.5-.4-3.3-.4-5.2-.1-.8-.1-1.9-.1-2.7 0-.8 0-1.7.1-2.5s.1-1.5.2-1.8c.1-.6.7-1 1.6-1.1.7-.1 1.6 0 2.3.3 0-.1 0-.2.1-.3z"/>
    <path fill="none" stroke="#A87900" stroke-width=".9" stroke-linecap="round" d="M19.15 14.55v2.85M23.75 13.45v2.75M28.25 12.65v2.8"/>
  </g>
  <rect x="38" y="90" width="40" height="10" fill="#A87900"/>
</svg>
