<svg id="Layer_1" xmlns="http://www.w3.org/2000/svg" viewBox="0 0 55.6 55.6"><style>.st0{fill:#26B67C;} .st1{fill:#F09F2E;} .st2{fill:#EA5D72;} .st3{fill:#CE311D;} .st4{fill:#1B7A51;} .st5{fill:#B56610;} .st6{fill:#BA354E;} .st7{fill:#932D0D;} .st8{fill:#00D177;} .st9{fill:#F6A82B;} .st10{fill:#F7636B;} .st11{fill:#ED5A2E;} .st12{fill:#46C190;} .st13{fill:#F2AD4D;} .st14{fill:#ED7587;} .st15{fill:#D5503F;} .st16{fill:#68CCA4;} .st17{fill:#F5BC6D;} .st18{fill:#F08E9D;} .st19{fill:#DD6F61;} .st20{fill:#92DABD;} .st21{fill:#F7CF96;} .st22{fill:#F4AEB8;} .st23{fill:#E6988E;} .st24{fill:#BDE9D7;} .st25{fill:#FAE2C0;} .st26{fill:#F9CED4;} .st27{fill:#F0C1BB;} .st28{fill:#DFF4EB;} .st29{fill:#FDF1E0;} .st30{fill:#FCE7EA;} .st31{fill:#F8E0DD;} .st32{fill:none;stroke:#CE311D;stroke-width:5;stroke-linecap:round;stroke-linejoin:round;stroke-miterlimit:10;} .st33{fill:#808080;} .st34{fill:#FFFFFF;} .st35{fill:#EE9E7F;} .st36{fill:none;stroke:#DD3E00;stroke-width:2;stroke-linecap:round;stroke-linejoin:round;stroke-miterlimit:10;} .st37{fill:#88D7B7;stroke:#26B67C;stroke-width:2;stroke-linecap:round;stroke-linejoin:round;stroke-miterlimit:10;} .st38{fill:#F7CA8C;stroke:#F09F2E;stroke-width:2;stroke-linecap:round;stroke-linejoin:round;stroke-miterlimit:10;} .st39{fill:#F3A6B2;stroke:#EA5D72;stroke-width:2;stroke-linecap:round;stroke-linejoin:round;stroke-miterlimit:10;} .st40{fill:#EC9573;stroke:#DD3E00;stroke-width:2;stroke-linecap:round;stroke-linejoin:round;stroke-miterlimit:10;} .st41{fill:#FFFFFF;stroke:#F09F2E;stroke-width:2;stroke-linecap:round;stroke-linejoin:round;stroke-miterlimit:10;} .st42{opacity:0.22;fill:#26B67C;} .st43{opacity:0.22;fill:#F09F2E;} .st44{opacity:0.22;fill:#EA5D72;} .st45{opacity:0.22;fill:#CE311D;} .st46{fill:#58B582;} .st47{fill:#FFD79E;} .st48{fill:#F0BF7D;} .st49{fill:#E53A05;} .st50{fill:#CC2D02;} .st51{fill:#F7AB9A;} .st52{fill:#F09F2E;stroke:#B56610;stroke-miterlimit:10;} .st53{fill:#DD3E00;stroke:#932D0D;stroke-miterlimit:10;} .st54{fill:#EA5D72;stroke:#BA354E;stroke-miterlimit:10;} .st55{fill:#26B67C;stroke:#1B7A51;stroke-miterlimit:10;} .st56{fill:#00D177;stroke:#1B7A51;stroke-miterlimit:10;} .st57{fill:#F7636B;stroke:#BA354E;stroke-miterlimit:10;} .st58{fill:#ED5A2E;stroke:#932D0D;stroke-miterlimit:10;} .st59{fill:#F6A82B;stroke-miterlimit:10;} .st60{fill:none;stroke:#B3B3B3;stroke-miterlimit:10;} .st61{fill:#A0A0A0;} .st62{fill:none;} .st63{fill:#FFFFFF;stroke:#EA5D72;stroke-width:4;stroke-linecap:round;stroke-linejoin:round;stroke-miterlimit:10;} .st64{fill:#FFFFFF;stroke:#26B67C;stroke-width:4;stroke-linecap:round;stroke-linejoin:round;stroke-miterlimit:10;} .st65{fill:none;stroke:#CE311D;stroke-width:4;stroke-linecap:round;stroke-linejoin:round;stroke-miterlimit:10;} .st66{fill:#FFFFFF;stroke:#CE311D;stroke-width:4;stroke-linecap:round;stroke-linejoin:round;stroke-miterlimit:10;} .st67{fill:#FFFFFF;stroke:#F09F2E;stroke-width:4;stroke-linecap:round;stroke-linejoin:round;stroke-miterlimit:10;} .st68{fill:#FFFFFF;stroke:#EA5D72;stroke-width:5;stroke-linecap:round;stroke-linejoin:round;stroke-miterlimit:10;} .st69{fill:#FFFFFF;stroke:#26B67C;stroke-width:5;stroke-linecap:round;stroke-linejoin:round;stroke-miterlimit:10;} .st70{fill:#FFFFFF;stroke:#CE311D;stroke-width:5;stroke-linecap:round;stroke-linejoin:round;stroke-miterlimit:10;} .st71{fill:#FFFFFF;stroke:#F09F2E;stroke-width:5;stroke-linecap:round;stroke-linejoin:round;stroke-miterlimit:10;} .st72{fill:none;stroke:#F09F2E;stroke-width:4;stroke-linecap:round;stroke-linejoin:round;stroke-miterlimit:10;} .st73{opacity:0.19;fill:#F09F2E;} .st74{fill:#FFFFFF;stroke:#DD3E00;stroke-width:4;stroke-linecap:round;stroke-linejoin:round;stroke-miterlimit:10;} .st75{fill:none;stroke:#DD3E00;stroke-width:4;stroke-linecap:round;stroke-linejoin:round;stroke-miterlimit:10;} .st76{opacity:0.14;fill:#DD3E00;} .st77{fill:none;stroke:#26B67C;stroke-width:4;stroke-linecap:round;stroke-linejoin:round;stroke-miterlimit:10;} .st78{opacity:0.19;} .st79{opacity:0.19;fill:#26B67C;} .st80{fill:none;stroke:#EA5D72;stroke-width:4;stroke-linecap:round;stroke-linejoin:round;stroke-miterlimit:10;} .st81{opacity:0.19;fill:#EA5D72;} .st82{fill:#B3B3B3;} .st83{fill:#CCCCCC;} .st84{fill:none;stroke:#CCCCCC;stroke-miterlimit:10;} .st85{fill:#666666;} .st86{fill:none;stroke:#666666;stroke-width:12;stroke-linecap:round;stroke-linejoin:round;stroke-miterlimit:10;} .st87{fill:none;stroke:#EA5D72;stroke-width:12;stroke-linecap:round;stroke-linejoin:round;stroke-miterlimit:10;} .st88{fill:#FFFFFF;stroke:#666666;stroke-width:12;stroke-linecap:round;stroke-linejoin:round;stroke-miterlimit:10;} .st89{fill:#FFFFFF;stroke:#EA5D72;stroke-width:12;stroke-linecap:round;stroke-linejoin:round;stroke-miterlimit:10;} .st90{opacity:0.46;} .st91{opacity:0.75;} .st92{fill:#F2F2F2;} .st93{fill:#5CB85C;} .st94{fill:none;stroke:#FFFFFF;stroke-miterlimit:10;} .st95{fill:#5E8AFB;} .st96{fill:#767676;} .st97{fill:#757575;} .st98{fill:none;stroke:#767676;stroke-width:2;stroke-miterlimit:10;} .st99{fill:#FBE7CB;} .st100{fill:#F3CBC6;} .st101{fill:#FAD6DC;} .st102{fill:#C9EDDE;}</style><circle class="st59" cx="27.8" cy="27.8" r="26.5"/><g id="XMLID_24_"><path class="st34" d="M42.8 20.4c2.7.3 2.7 1.4 2.7 1.8 0 .3 0 .5-.1.8v.2c-.2.1-.9.3-1.4.4-1.5.4-3.7.9-5 2.3-.7.7-1.6 1.6-2.7 2.6-3.1 3-5.2 5-5.4 5.9-.1.2-.3.8-.3 3.8v2.2H19.4V34c0-.3-.2-.6-.5-1.1-.6-.9-1.8-2.6-2.5-5.8-.3-1.4-.4-3.1-.4-5V22v-2.5c0-1.8.1-3.6.2-4 0-.1.2-.2.8-.3.9-.1 1.7.1 2 .4v.7c0 1 0 1 .1 1.1.1.2.3.3.6.3.2 0 .4-.2.4-.5 0-.2 0-.7.1-1.2 0-.5.1-1.3.1-1.5 0-.1.3-.3.9-.4 1-.2 2.1.1 2.4.5v.7c0 .7 0 .8.1.9.1.2.3.4.5.3.2 0 .4-.2.4-.5 0-.2 0-.6.1-1.1 0-.5.1-1.3.1-1.5 0-.1.3-.3 1-.4 1-.1 2 .1 2.4.5v.8c0 1 0 1 .1 1.1.1.2.3.3.5.3s.4-.2.5-.4v-1-.9c.1-.1.3-.3.9-.4 1.1-.2 2.3.1 2.5.5.2.4.4 1.8.4 3.9 0 1.2-.1 2.3-.2 3.2v.2c.2 1.2.5 1.9 1 2.3.9.7 2 0 3.5-.9 1.5-.8 3.4-2 5.4-1.8z"/><path class="st5" d="M16.1 22.2c-.1 1.9.1 3.6.4 5 .6 3.1 1.8 4.8 2.5 5.8.3.5.5.8.5 1.1v6.4h11.2v-2.2c0-2.9.2-3.6.3-3.8.3-.9 2.3-2.9 5.4-5.9 1-1 2-1.9 2.7-2.6 1.4-1.4 3.5-1.9 5-2.3.5-.1 1.2-.3 1.4-.4v-.2c0-.2.1-.5.1-.8 0-.4 0-1.6-2.7-1.8-2-.2-3.9 1-5.5 1.9-1.5.9-2.6 1.6-3.5.9-.4-.4-.7-1.1-1-2.3v-.2c.1-.8.2-2 .2-3.2 0-2.1-.2-3.6-.4-3.9-.2-.4-1.4-.7-2.5-.5-.6.1-.8.3-.9.4v1.9c0 .2-.2.4-.5.4-.2 0-.4-.1-.5-.3 0-.1 0-.1-.1-1.1v-.8c-.3-.4-1.4-.6-2.4-.5-.6.1-.9.3-1 .4 0 .1-.1.9-.1 1.5 0 .4 0 .8-.1 1.1 0 .2-.2.4-.4.5-.2 0-.5-.1-.5-.3 0-.1 0-.2-.1-.9v-.7c-.3-.4-1.4-.6-2.4-.5-.6.1-.9.3-.9.4 0 .2-.1.9-.1 1.5 0 .5 0 1-.1 1.2 0 .2-.2.4-.4.5-.2 0-.4-.1-.6-.3-.1-.3-.1-.3-.1-1.3v-.7c-.3-.3-1.2-.5-2-.4-.6.1-.8.3-.8.3-.1.5-.2 2.2-.2 4 0 1.1 0 2 .1 2.7 0-.1 0-.1 0 0zm3.1-8c.2-.6.8-1 1.8-1.2.9-.1 2.1 0 2.8.4v-.2c.2-.6.8-1.1 1.8-1.2 1-.1 2.3 0 3 .6.3-.3.8-.5 1.4-.6 1.3-.2 3 .1 3.5 1 .6.9.6 3.9.6 4.5 0 1.2-.1 2.4-.2 3.2.2 1.2.5 1.5.6 1.6.3.2 1.4-.4 2.3-1 1.7-1 3.8-2.3 6.1-2 2.4.2 3.6 1.2 3.6 2.8 0 .4-.1.7-.1.9v.3c-.1.7-.9.9-2.2 1.2-1.4.3-3.4.8-4.5 2-.7.8-1.7 1.8-2.7 2.8-2 1.9-5 4.8-5.2 5.5-.1.3-.2 1.1-.2 3.5V41c0 .1 0 .3-.1.4-.1.1-.2.2-.4.2H18.9c-.3 0-.5-.2-.5-.5v-6.9c0-.1-.2-.3-.4-.6-.7-1-2-2.8-2.6-6.1-.3-1.5-.4-3.3-.4-5.2-.1-.8-.1-1.9-.1-2.7 0-.8 0-1.7.1-2.5s.1-1.5.2-1.8c.1-.6.7-1 1.6-1.1.7-.1 1.6 0 2.3.3 0-.1 0-.2.1-.3z"/></g><path class="st5" d="M16.667 43.068v-4.2h17.1v4.2z"/></svg>
