<svg id="Layer_1" xmlns="http://www.w3.org/2000/svg" viewBox="0 0 55.6 55.6"><style>.st0{fill:#26B67C;} .st1{fill:#F09F2E;} .st2{fill:#EA5D72;} .st3{fill:#CE311D;} .st4{fill:#1B7A51;} .st5{fill:#B56610;} .st6{fill:#BA354E;} .st7{fill:#932D0D;} .st8{fill:#00D177;} .st9{fill:#FFB300;} .st10{fill:#F7636B;} .st11{fill:#ED5A2E;} .st12{fill:#46C190;} .st13{fill:#F2AD4D;} .st14{fill:#ED7587;} .st15{fill:#D5503F;} .st16{fill:#68CCA4;} .st17{fill:#F5BC6D;} .st18{fill:#F08E9D;} .st19{fill:#DD6F61;} .st20{fill:#92DABD;} .st21{fill:#F7CF96;} .st22{fill:#F4AEB8;} .st23{fill:#E6988E;} .st24{fill:#BDE9D7;} .st25{fill:#FAE2C0;} .st26{fill:#F9CED4;} .st27{fill:#F0C1BB;} .st28{fill:#DFF4EB;} .st29{fill:#FDF1E0;} .st30{fill:#FCE7EA;} .st31{fill:#F8E0DD;} .st32{fill:none;stroke:#CE311D;stroke-width:5;stroke-linecap:round;stroke-linejoin:round;stroke-miterlimit:10;} .st33{fill:#808080;} .st34{fill:#FFFFFF;} .st35{fill:#EE9E7F;} .st36{fill:none;stroke:#DD3E00;stroke-width:2;stroke-linecap:round;stroke-linejoin:round;stroke-miterlimit:10;} .st37{fill:#88D7B7;stroke:#26B67C;stroke-width:2;stroke-linecap:round;stroke-linejoin:round;stroke-miterlimit:10;} .st38{fill:#F7CA8C;stroke:#F09F2E;stroke-width:2;stroke-linecap:round;stroke-linejoin:round;stroke-miterlimit:10;} .st39{fill:#F3A6B2;stroke:#EA5D72;stroke-width:2;stroke-linecap:round;stroke-linejoin:round;stroke-miterlimit:10;} .st40{fill:#EC9573;stroke:#DD3E00;stroke-width:2;stroke-linecap:round;stroke-linejoin:round;stroke-miterlimit:10;} .st41{fill:#FFFFFF;stroke:#F09F2E;stroke-width:2;stroke-linecap:round;stroke-linejoin:round;stroke-miterlimit:10;} .st42{opacity:0.22;fill:#26B67C;} .st43{opacity:0.22;fill:#F09F2E;} .st44{opacity:0.22;fill:#EA5D72;} .st45{opacity:0.22;fill:#CE311D;} .st46{fill:#58B582;} .st47{fill:#FFD79E;} .st48{fill:#F0BF7D;} .st49{fill:#E53A05;} .st50{fill:#CC2D02;} .st51{fill:#F7AB9A;} .st52{fill:#F09F2E;stroke:#B56610;stroke-miterlimit:10;} .st53{fill:#DD3E00;stroke:#932D0D;stroke-miterlimit:10;} .st54{fill:#EA5D72;stroke:#BA354E;stroke-miterlimit:10;} .st55{fill:#26B67C;stroke:#1B7A51;stroke-miterlimit:10;} .st56{fill:#00D177;stroke:#1B7A51;stroke-miterlimit:10;} .st57{fill:#F7636B;stroke-miterlimit:10;} .st58{fill:#ED5A2E;stroke:#932D0D;stroke-miterlimit:10;} .st59{fill:#FFB300;stroke:#B56610;stroke-miterlimit:10;} .st60{fill:none;stroke:#B3B3B3;stroke-miterlimit:10;} .st61{fill:#A0A0A0;} .st62{fill:none;} .st63{fill:#FFFFFF;stroke:#EA5D72;stroke-width:4;stroke-linecap:round;stroke-linejoin:round;stroke-miterlimit:10;} .st64{fill:#FFFFFF;stroke:#26B67C;stroke-width:4;stroke-linecap:round;stroke-linejoin:round;stroke-miterlimit:10;} .st65{fill:none;stroke:#CE311D;stroke-width:4;stroke-linecap:round;stroke-linejoin:round;stroke-miterlimit:10;} .st66{fill:#FFFFFF;stroke:#CE311D;stroke-width:4;stroke-linecap:round;stroke-linejoin:round;stroke-miterlimit:10;} .st67{fill:#FFFFFF;stroke:#F09F2E;stroke-width:4;stroke-linecap:round;stroke-linejoin:round;stroke-miterlimit:10;} .st68{fill:#FFFFFF;stroke:#EA5D72;stroke-width:5;stroke-linecap:round;stroke-linejoin:round;stroke-miterlimit:10;} .st69{fill:#FFFFFF;stroke:#26B67C;stroke-width:5;stroke-linecap:round;stroke-linejoin:round;stroke-miterlimit:10;} .st70{fill:#FFFFFF;stroke:#CE311D;stroke-width:5;stroke-linecap:round;stroke-linejoin:round;stroke-miterlimit:10;} .st71{fill:#FFFFFF;stroke:#F09F2E;stroke-width:5;stroke-linecap:round;stroke-linejoin:round;stroke-miterlimit:10;} .st72{fill:none;stroke:#F09F2E;stroke-width:4;stroke-linecap:round;stroke-linejoin:round;stroke-miterlimit:10;} .st73{opacity:0.19;fill:#F09F2E;} .st74{fill:#FFFFFF;stroke:#DD3E00;stroke-width:4;stroke-linecap:round;stroke-linejoin:round;stroke-miterlimit:10;} .st75{fill:none;stroke:#DD3E00;stroke-width:4;stroke-linecap:round;stroke-linejoin:round;stroke-miterlimit:10;} .st76{opacity:0.14;fill:#DD3E00;} .st77{fill:none;stroke:#26B67C;stroke-width:4;stroke-linecap:round;stroke-linejoin:round;stroke-miterlimit:10;} .st78{opacity:0.19;} .st79{opacity:0.19;fill:#26B67C;} .st80{fill:none;stroke:#EA5D72;stroke-width:4;stroke-linecap:round;stroke-linejoin:round;stroke-miterlimit:10;} .st81{opacity:0.19;fill:#EA5D72;} .st82{fill:#B3B3B3;} .st83{fill:#CCCCCC;} .st84{fill:none;stroke:#CCCCCC;stroke-miterlimit:10;} .st85{fill:#666666;} .st86{fill:none;stroke:#666666;stroke-width:12;stroke-linecap:round;stroke-linejoin:round;stroke-miterlimit:10;} .st87{fill:none;stroke:#EA5D72;stroke-width:12;stroke-linecap:round;stroke-linejoin:round;stroke-miterlimit:10;} .st88{fill:#FFFFFF;stroke:#666666;stroke-width:12;stroke-linecap:round;stroke-linejoin:round;stroke-miterlimit:10;} .st89{fill:#FFFFFF;stroke:#EA5D72;stroke-width:12;stroke-linecap:round;stroke-linejoin:round;stroke-miterlimit:10;} .st90{opacity:0.46;} .st91{opacity:0.75;} .st92{fill:#F2F2F2;} .st93{fill:#5CB85C;} .st94{fill:none;stroke:#FFFFFF;stroke-miterlimit:10;} .st95{fill:#5E8AFB;} .st96{fill:#767676;} .st97{fill:#757575;} .st98{fill:none;stroke:#767676;stroke-width:2;stroke-miterlimit:10;} .st99{fill:#FBE7CB;} .st100{fill:#F3CBC6;} .st101{fill:#FAD6DC;} .st102{fill:#C9EDDE;}</style><circle class="st57" cx="27.8" cy="27.8" r="26.5"/><g id="XMLID_26_"><path class="st34" d="M12.8 25.2c-.1 1 .1 2 .5 2.4h.8c1 0 1 0 1.1.1.2.1.3.3.3.5s-.2.4-.4.4h-1.9c-.1.1-.3.3-.4.9-.2 1.1.1 2.3.5 2.5.3.2 1.8.4 3.9.4 1.2 0 2.3-.1 3.2-.2h.2c1.2.2 1.9.5 2.3 1 .7.9 0 2-.9 3.5-.9 1.6-2.1 3.5-1.9 5.5.3 2.7 1.4 2.7 1.8 2.7.3 0 .5 0 .8-.1h.2c.1-.2.3-.9.4-1.4.4-1.5.9-3.7 2.3-5 .7-.7 1.6-1.6 2.6-2.7 3-3.1 5-5.2 5.9-5.4.2-.1.8-.3 3.8-.3h2.2V18.9h-6.4c-.3 0-.6-.2-1.1-.5-.9-.6-2.6-1.8-5.8-2.5-1.4-.3-3.1-.4-5-.4h-.1c-.6-.1-1.5-.1-2.6-.1-1.8 0-3.6.1-4 .2-.1 0-.2.2-.3.8-.1.9.1 1.7.4 2h.7c1 0 1 0 1.1.1.2.1.3.3.3.6s-.2.4-.5.4c-.2 0-.7 0-1.2.1-.5 0-1.3 0-1.5.1-.1 0-.3.3-.4.9-.2 1 .1 2.1.5 2.4h.7c.7 0 .8 0 .9.1.2.1.4.3.3.5 0 .2-.2.4-.5.4-.2 0-.6 0-1.1.1-.5 0-1.3.1-1.5.1.1.1-.1.4-.2 1z"/><path class="st6" d="M20.1 42.3c-.2-2 1-3.9 1.9-5.5.9-1.5 1.6-2.6.9-3.5-.4-.4-1.1-.7-2.3-1h-.2c-.8.1-2 .2-3.2.2-2.1 0-3.6-.2-3.9-.4-.4-.2-.7-1.4-.5-2.5.1-.6.3-.8.4-.9h1.9c.2 0 .4-.2.4-.4s-.1-.4-.3-.5c-.1 0-.1 0-1.1-.1h-.8c-.4-.3-.6-1.4-.5-2.4.1-.6.3-.9.4-1 .1 0 .9-.1 1.5-.1.4 0 .8 0 1.1-.1.2 0 .4-.2.5-.4 0-.2-.1-.5-.3-.5-.1 0-.2 0-.9-.1h-.7c-.4-.3-.6-1.4-.5-2.4.1-.6.3-.9.4-.9.2 0 .9-.1 1.5-.1.5 0 1 0 1.2-.1.2 0 .4-.2.5-.4s-.1-.4-.3-.6c-.2-.1-.2-.1-1.2-.1h-.7c-.3-.3-.5-1.2-.4-2 .1-.6.3-.8.3-.8.5-.1 2.2-.2 4-.2 1.1 0 2 0 2.6.1h.1c1.9-.1 3.6.1 5 .4 3.1.6 4.8 1.8 5.8 2.5.5.3.8.5 1.1.5h6.4v11.2H38c-2.9 0-3.6.2-3.8.3-.9.3-2.9 2.3-5.9 5.4-1 1-1.9 2-2.6 2.7-1.4 1.4-1.9 3.5-2.3 5-.1.5-.3 1.2-.4 1.4h-.2c-.2 0-.5.1-.8.1-.5-.1-1.6-.1-1.9-2.8zm-8.3-12.8c-.2 1.3.1 3 1 3.5.9.6 3.9.6 4.5.6 1.2 0 2.4-.1 3.2-.2 1.2.2 1.5.5 1.6.6.2.3-.4 1.4-1 2.3-1 1.7-2.3 3.8-2 6.1.2 2.4 1.2 3.6 2.8 3.6.4 0 .7-.1.9-.1h.3c.7-.1.9-.9 1.2-2.2.3-1.4.8-3.4 2-4.5.7-.7 1.6-1.6 2.6-2.7 1.9-2 4.8-5 5.5-5.2.3-.1 1-.2 3.5-.2h2.7c.1 0 .3 0 .4-.1.1-.1.2-.2.2-.4V18.4c0-.3-.2-.5-.5-.5h-6.9c-.1 0-.3-.2-.6-.4-1-.7-2.8-2-6.1-2.6-1.5-.3-3.3-.4-5.2-.4-.8-.1-1.9-.1-2.7-.1-1.6 0-3.6.1-4.3.3-.6.1-1 .7-1.1 1.6-.1.7 0 1.6.3 2.3h-.2c-.6.2-1 .8-1.2 1.8-.1.9 0 2.1.4 2.8h-.2c-.6.2-1.1.8-1.2 1.8-.1 1 0 2.3.6 3-.2.4-.4.9-.5 1.5z"/></g><path class="st6" d="M43.26 33.168h-4.2v-17.1h4.2z"/></svg>
