<?xml version="1.0" encoding="utf-8"?>
<!-- Generator: Adobe Illustrator 14.0.0, SVG Export Plug-In . SVG Version: 6.00 Build 43363)  -->
<!DOCTYPE svg PUBLIC "-//W3C//DTD SVG 1.1//EN" "http://www.w3.org/Graphics/SVG/1.1/DTD/svg11.dtd">
<svg version="1.1" id="Layer_1" xmlns="http://www.w3.org/2000/svg" xmlns:xlink="http://www.w3.org/1999/xlink" x="0px" y="0px"
	 width="400px" height="400px" viewBox="0 0 400 400" enable-background="new 0 0 400 400" xml:space="preserve">
<g>
	<path fill="#555BA4" d="M52.161,91.376c56.169-9.74,112.316-19.479,169.086-29.324v41.05c12.084-5.004,23.379-4.671,34.077,1.773
		c10.71,6.45,15.827,16.323,16.953,28.771c12.969-19.73,33.659-21.376,47.57-14.27c14.707,7.514,22.119,24.154,17.705,39.817
		c-4.318,15.326-19.91,26.384-35.789,25.211c-15.187-1.119-31.632-11.212-33.59-34.081c-13.709,17.737-23.036,20.838-46.51,15.314
		v11.93c1.805,0.108,3.373,0.283,4.94,0.286c12.116,0.022,24.242,0.319,36.345-0.076c11.306-0.368,17.91,4.773,16.722,14.936
		c-0.04,0.35,0.221,0.732,0.481,1.522c1.559,0.125,3.246,0.369,4.934,0.374c13.057,0.033,26.115-0.02,39.173,0.031
		c10.869,0.044,14.266,3.408,14.27,13.939c0.002,11.445,0.021,22.892-0.006,34.336c-0.051,21.291-15.38,36.536-37.198,36.901
		c-8.064,0.136-16.132,0.023-24.181,0.023c-0.551,0.705-1.023,1.177-1.333,1.733c-7.494,13.472-19.34,19.521-34.756,19.509
		c-6.306-0.003-12.611,0-19.567,0v41.708c-56.932-9.09-113.074-18.055-169.326-27.037V91.376z M221.597,289.869
		c7.313,0,14.163-0.312,20.973,0.066c13.961,0.774,26.166-10.586,26-25.611c-0.262-23.519-0.075-47.044-0.094-70.566
		c-0.002-1.394-0.155-2.787-0.24-4.236h-46.639V289.869z M279.819,268.354c9.348,0,18.274,0.723,27.027-0.177
		c11.917-1.221,20.448-12.181,20.576-25.048c0.113-11.299,0.032-22.599,0.011-33.898c-0.003-1.007-0.215-2.013-0.339-3.098h-47.275
		V268.354z M145.265,167.34c11.002-0.599,21.254-1.157,31.606-1.721v-15.521c-25.949,1.621-51.564,3.221-77.171,4.82v13.717h27.716
		v85.957c6.223,0.297,11.758,0.562,17.849,0.853V167.34z M280.932,149.58c-0.16,12.318,9.636,22.436,21.885,22.597
		c13.315,0.176,23.74-9.442,23.848-22.004c0.105-12.416-9.865-22.452-22.43-22.573C291.062,127.473,281.097,136.871,280.932,149.58
		 M221.531,150.277c8.979,8.527,23.205,8.113,31.945-0.804c8.818-8.995,8.407-23.307-0.916-31.851
		c-8.839-8.1-23.07-8.061-31.029,0.185V150.277z"/>
</g>
</svg>
