<?xml version="1.0" ?><!DOCTYPE svg  PUBLIC '-//W3C//DTD SVG 1.1//EN'  'http://www.w3.org/Graphics/SVG/1.1/DTD/svg11.dtd'><svg height="2048px" style="shape-rendering:geometricPrecision; text-rendering:geometricPrecision; image-rendering:optimizeQuality; fill-rule:evenodd; clip-rule:evenodd" viewBox="0 0 2048 2048" width="2048px" xml:space="preserve" xmlns="http://www.w3.org/2000/svg" xmlns:xlink="http://www.w3.org/1999/xlink"><defs><style type="text/css">
   <![CDATA[
    .fil9 {fill:none}
    .fil0 {fill:none;fill-rule:nonzero}
    .fil7 {fill:#248C73}
    .fil4 {fill:#392538}
    .fil2 {fill:#3CB187}
    .fil8 {fill:#62803A}
    .fil6 {fill:#72C5CD}
    .fil5 {fill:#BB242A}
    .fil3 {fill:#CE1E5B}
    .fil1 {fill:#DFA22F}
   ]]>
  </style></defs><g id="Layer_x0020_1"><line class="fil0" x1="584.053" x2="584.054" y1="1583.52" y2="1583.52"/><line class="fil0" x1="712.874" x2="712.871" y1="1650.39" y2="1650.39"/><line class="fil0" x1="698.728" x2="698.729" y1="1621.8" y2="1621.8"/><line class="fil0" x1="1468.84" x2="1468.84" y1="1425.67" y2="1425.67"/><line class="fil0" x1="942.276" x2="942.275" y1="441.252" y2="441.25"/><line class="fil0" x1="970.865" x2="970.865" y1="427.106" y2="427.107"/><line class="fil0" x1="441.252" x2="441.25" y1="1105.73" y2="1105.73"/><line class="fil0" x1="427.105" x2="427.106" y1="1077.14" y2="1077.14"/><g id="_337881696"><path class="fil1" d="M1252.09 350.58c-23.348,-71.876 -100.539,-111.206 -172.4,-87.8434 -71.876,23.3492 -111.206,100.537 -87.8457,172.401l353.796 1088.54c24.2929,67.1386 96.8233,104.869 166.443,84.8327 72.6178,-20.9067 116.886,-98.0328 93.7135,-169.352 -0.882284,-2.72008 -353.707,-1088.57 -353.707,-1088.57z" id="_337881912"/><path class="fil2" d="M703.899 528.698c-23.3622,-71.8619 -100.553,-111.194 -172.414,-87.8446 -71.876,23.3504 -111.208,100.539 -87.8457,172.414l353.796 1088.54c24.2929,67.1386 96.8233,104.871 166.443,84.8209 72.6178,-20.8937 116.886,-98.0209 93.7111,-169.354 -0.879922,-2.70591 -353.691,-1088.57 -353.691,-1088.57z" id="_337881768"/><path class="fil3" d="M1697.42 1252.11c71.876,-23.3516 111.194,-100.539 87.8434,-172.414 -23.3492,-71.8619 -100.537,-111.194 -172.401,-87.8457l-1088.54 353.808c-67.1386,24.2811 -104.869,96.8115 -84.8327,166.432 20.9067,72.6178 98.0328,116.886 169.352,93.7135 2.72008,-0.882284 1088.57,-353.693 1088.57,-353.693z" id="_337881480"/><path class="fil4" d="M751.202 1559.55c70.8544,-23.0221 162.175,-52.6937 260.169,-84.5304 -23.0221,-70.8544 -52.6937,-162.189 -84.5446,-260.196l-260.182 84.5694 84.5575 260.157z" id="_337881936"/><path class="fil5" d="M1299.41 1381.42c98.3599,-31.9512 189.782,-61.6607 260.169,-84.5327 -23.0221,-70.8544 -52.7067,-162.212 -84.5552,-260.244l-260.183 84.5694 84.5694 260.208z" id="_337881288"/><path class="fil6" d="M1519.3 703.896c71.8607,-23.3516 111.194,-100.539 87.8446,-172.414 -23.3516,-71.8619 -100.539,-111.194 -172.414,-87.8457l-1088.54 353.808c-67.1386,24.2811 -104.871,96.8115 -84.8209,166.432 20.8937,72.6178 98.0209,116.886 169.354,93.7111 2.70591,-0.879922 1088.57,-353.691 1088.57,-353.691z" id="_337881840"/><path class="fil7" d="M573.032 1011.36c70.8544,-23.0232 162.2,-52.7056 260.208,-84.5446 -31.9536,-98.3729 -61.6607,-189.793 -84.5327,-260.194l-260.244 84.5823 84.5694 260.156z" id="_337881888"/><path class="fil8" d="M1121.23 833.238c98.3859,-31.9642 189.82,-61.6737 260.221,-84.5575 -31.9642,-98.3847 -61.6749,-189.832 -84.5587,-260.247l-260.231 84.5835 84.5694 260.221z" id="_337881552"/></g></g><rect class="fil9" height="2048" width="2048"/></svg>